<svg width="62" height="23" viewBox="0 0 62 23" fill="none" xmlns="http://www.w3.org/2000/svg">
<g clip-path="url(#clip0_6_822)">
<path d="M38.138 4.29364V19.4053H35.0755V17.8641C34.7552 18.4045 34.295 18.8449 33.7344 19.1251C33.134 19.4253 32.4534 19.5855 31.7731 19.5855C30.9324 19.6055 30.0917 19.3653 29.3911 18.8849C28.6707 18.4045 28.1101 17.744 27.7498 16.9634C27.3496 16.0627 27.1494 15.102 27.1693 14.1212C27.1494 13.1405 27.3496 12.1797 27.7498 11.299C28.1101 10.5385 28.6707 9.87794 29.3712 9.41759C30.0917 8.95724 30.9324 8.73707 31.7731 8.75709C32.4335 8.75709 33.0939 8.8972 33.6744 9.19742C34.235 9.47763 34.6952 9.89797 35.0154 10.4184V5.31443L38.138 4.29364ZM34.4551 16.423C34.8553 15.9026 35.0755 15.142 35.0755 14.1613C35.0755 13.1805 34.8755 12.4399 34.4551 11.9195C34.0348 11.3991 33.3741 11.0989 32.6938 11.1189C32.0132 11.0789 31.3527 11.3791 30.9122 11.8995C30.4921 12.4199 30.2717 13.1605 30.2717 14.1212C30.2717 15.102 30.4921 15.8626 30.9122 16.403C31.3326 16.9434 32.0132 17.2436 32.6938 17.2236C33.4543 17.2236 34.0547 16.9434 34.4551 16.423Z" fill="#1B1D27"/>
<path d="M49.0861 9.39759C49.8066 9.85795 50.3671 10.5184 50.7073 11.279C51.1075 12.1597 51.3077 13.1205 51.2878 14.1012C51.3077 15.082 51.1075 16.0627 50.7073 16.9434C50.3469 17.724 49.7866 18.3845 49.0659 18.8649C48.3654 19.3252 47.5247 19.5654 46.6842 19.5454C46.0036 19.5654 45.3231 19.4053 44.7227 19.0851C44.1623 18.8048 43.7019 18.3645 43.4016 17.8241V19.3853H40.3193V5.31443L43.4217 4.29364V10.4584C43.7218 9.91799 44.1823 9.47766 44.7426 9.19742C45.3432 8.87717 46.0036 8.71705 46.6842 8.73707C47.5247 8.71705 48.3654 8.95724 49.0861 9.39759ZM47.5648 16.403C47.9852 15.8626 48.1854 15.102 48.1854 14.1012C48.1854 13.1405 47.9852 12.3999 47.5648 11.8795C47.1444 11.3591 46.564 11.0989 45.8034 11.0989C45.1231 11.0589 44.4624 11.3591 44.0221 11.8995C43.6018 12.4399 43.4016 13.1805 43.4016 14.1413C43.4016 15.122 43.6018 15.8826 44.0221 16.403C44.4425 16.9434 45.1029 17.2436 45.8034 17.2036C46.484 17.2436 47.1444 16.9434 47.5648 16.403Z" fill="#1B1D27"/>
<path d="M55.5711 11.319V15.3621C55.5711 15.9426 55.7313 16.3629 56.0117 16.6231C56.3319 16.9033 56.752 17.0434 57.1926 17.0234C57.5327 17.0234 57.8931 16.9634 58.2133 16.8833V19.2852C57.6328 19.4853 57.0324 19.5854 56.4318 19.5654C55.151 19.5654 54.1701 19.2051 53.4895 18.4845C52.8092 17.764 52.4688 16.7432 52.4688 15.4222V6.55533L55.5711 5.55457V8.99723H58.2133V11.319H55.5711Z" fill="#1B1D27"/>
<path d="M21.4249 1.79168C21.9453 2.29207 22.2855 2.95258 22.3656 3.67313C22.3656 3.97336 22.2855 4.17353 22.1054 4.55382C21.9253 4.93411 19.7036 8.77709 19.0431 9.8379C18.6628 10.4584 18.4626 11.199 18.4626 11.9195C18.4626 12.6601 18.6628 13.3806 19.0431 14.0011C19.7036 15.0619 21.9253 18.9249 22.1054 19.3052C22.2855 19.6855 22.3656 19.8656 22.3656 20.1659C22.2855 20.8864 21.9653 21.5469 21.4449 22.0273C20.9445 22.5477 20.284 22.888 19.5835 22.948C19.2832 22.948 19.0831 22.868 18.7228 22.6878C18.3625 22.5077 14.4395 20.346 13.3787 19.6855C13.2986 19.6455 13.2185 19.5854 13.1185 19.5454L7.87442 16.443C7.9945 17.4438 8.43486 18.4045 9.1554 19.1051C9.29553 19.2452 9.43563 19.3653 9.59575 19.4853C9.47565 19.5454 9.33555 19.6054 9.21546 19.6855C8.15463 20.346 4.29166 22.5677 3.91137 22.7479C3.53108 22.928 3.35093 23.0081 3.03068 23.0081C2.31012 22.928 1.64961 22.6078 1.16924 22.0874C0.64884 21.587 0.308577 20.9265 0.228516 20.2059C0.248531 19.9057 0.328593 19.6054 0.488718 19.3452C0.668857 18.9649 2.89057 15.102 3.55107 14.0411C3.93136 13.4207 4.13153 12.7001 4.13153 11.9595C4.13153 11.219 3.93136 10.4984 3.55107 9.87792C2.89057 8.77709 0.64884 4.91409 0.488718 4.5338C0.328593 4.27359 0.248531 3.97336 0.228516 3.67313C0.308577 2.95258 0.628826 2.29207 1.14923 1.79168C1.64961 1.27128 2.31012 0.951033 3.03068 0.870972C3.33091 0.890987 3.63113 0.971049 3.91137 1.13117C4.23162 1.27128 7.05378 2.91255 8.55494 3.79324L8.89521 3.99338C9.0153 4.07345 9.11538 4.13349 9.19544 4.17353L9.35557 4.27359L14.6997 7.43605C14.5796 6.23511 13.9591 5.13426 12.9984 4.3937C13.1185 4.33366 13.2586 4.27359 13.3787 4.19353C14.4395 3.53303 18.3025 1.2913 18.6828 1.13117C18.943 0.971049 19.2432 0.890987 19.5634 0.870972C20.264 0.951033 20.9245 1.27128 21.4249 1.79168ZM11.5773 13.3606L12.7182 12.2197C12.8783 12.0596 12.8783 11.8194 12.7182 11.6593L11.5773 10.5184C11.4171 10.3583 11.177 10.3583 11.0169 10.5184L9.87596 11.6593C9.71584 11.8194 9.71584 12.0596 9.87596 12.2197L11.0169 13.3606C11.157 13.5007 11.4171 13.5007 11.5773 13.3606Z" fill="#1B1D27"/>
<path d="M61.0022 18.4487L60.6497 19.4406H60.5189L60.1664 18.4512V19.4406H59.9396V18.0887H60.2217L60.5843 19.0932L60.9468 18.0887H61.2287V19.4406H61.0022V18.4487ZM59.7409 18.2926H59.3707V19.4406H59.1417V18.2926H58.769V18.0887H59.7409V18.2926Z" fill="#1B1D27"/>
</g>
<defs>
<clipPath id="clip0_6_822">
<rect width="61" height="22.1371" fill="white" transform="translate(0.228516 0.870972)"/>
</clipPath>
</defs>
</svg>
