<svg width="73" height="17" viewBox="0 0 73 17" fill="none" xmlns="http://www.w3.org/2000/svg">
<path d="M59.0857 3.98618C58.9029 6.13173 58.4568 8.22764 57.8595 10.29C57.4747 11.619 57.0456 12.9367 56.5877 14.2423C56.3637 14.8806 56.0137 15.4795 55.3777 15.8097C54.3891 16.323 53.2495 15.8518 52.8177 14.747C52.6275 14.2601 52.4867 13.7517 52.3531 13.2453C51.7582 10.9911 49.7954 9.87773 47.8552 9.88853C45.4585 9.90165 43.8235 11.0421 42.7254 13.0983C42.3906 13.7252 42.0362 14.3457 41.6381 14.9334C41.0814 15.7552 40.3101 16.2024 39.2794 16.0846C38.2536 15.9676 37.5887 15.2968 37.4305 14.2721C37.2651 13.2009 37.4093 12.1519 37.6335 11.1137C38.223 8.38359 38.8278 5.65667 39.4463 2.93305C39.7988 1.3811 40.7808 0.616336 42.3611 0.53731C44.2317 0.443889 45.4905 1.41814 46.5242 2.82824C46.8409 3.26003 47.1513 3.70142 47.5118 4.09505C48.2091 4.85614 49.2155 4.92887 50.0444 4.32156C51.1116 3.53954 52.1656 2.73819 53.2524 1.98437C54.227 1.30837 55.2769 0.810077 56.5107 0.81555C58.017 0.822223 58.9557 2.07157 59.0828 3.34993C59.1036 3.56001 59.0857 3.774 59.0857 3.98618ZM13.5882 13.9605C13.7806 12.9245 13.9525 11.8678 14.1765 10.8222C14.5733 8.97045 14.9547 7.11334 15.4327 5.28203C15.7748 3.97128 16.1846 2.6612 17.0021 1.54389C17.4161 0.978191 17.9192 0.522255 18.7056 0.560043C19.2132 0.584486 19.6148 0.807243 19.9567 1.15499C20.2973 1.50138 20.5855 1.90963 20.962 2.20857C21.7964 2.87099 23.0181 2.82053 23.9606 2.14116C24.4562 1.78397 24.9256 1.38434 25.4469 1.07041C26.4065 0.492414 27.6345 0.797346 28.2438 1.73433C28.7214 2.46881 28.6521 3.22016 28.1777 3.91257C27.5792 4.78598 26.9179 5.61613 26.3042 6.47949C25.5392 7.55548 25.3983 8.69544 26.0014 9.90242C26.3582 10.6166 26.7242 11.3286 27.0318 12.0643C27.4475 13.0586 27.6249 14.0816 27.0909 15.0998C26.3018 16.6047 24.7162 16.8706 23.4896 15.6961C22.8957 15.1276 22.3527 14.5055 21.7517 13.945C20.8451 13.0995 19.8737 13.1042 18.9427 13.9402C18.3139 14.5049 17.7379 15.1307 17.0883 15.6691C15.9988 16.5721 14.4419 16.2312 13.8269 14.969C13.6852 14.6781 13.6705 14.3252 13.5882 13.9605ZM64.0324 16.3879C62.6292 16.4374 61.2535 16.3421 60.0389 15.539C59.306 15.0542 58.7685 14.4151 58.7246 13.481C58.7045 13.0517 58.8916 12.6434 59.2966 12.3145C59.8572 11.8377 60.4118 11.6355 61.1438 11.4972C61.6562 11.4002 62.1704 11.2882 62.6647 11.1248C63.697 10.7833 63.9418 9.80165 63.2202 8.97368C63.0566 8.78601 62.8727 8.61588 62.697 8.43886C61.8958 7.63181 61.3264 6.70479 61.3824 5.52818C61.4038 5.07944 61.5147 4.60243 61.7114 4.20018C62.663 2.25423 64.2655 1.15604 66.3556 0.666211C68.0783 0.262459 69.674 0.52053 71.1925 1.38059C72.0681 1.87649 72.4969 2.69779 72.3449 3.54526C72.2162 4.26324 71.5855 4.76828 70.7169 4.82339C70.394 4.84386 70.0676 4.82722 69.7438 4.81042C69.4888 4.7973 69.2193 4.76101 69.0886 5.03745C68.9484 5.33421 69.0234 5.60833 69.2491 5.8556C69.669 6.31581 70.1172 6.7584 70.4779 7.26262C71.2307 8.31508 71.6978 9.48832 71.5188 10.806C71.3244 12.2374 70.6129 13.4225 69.5021 14.3297C68.1819 15.4082 66.6568 16.0683 64.9647 16.3184C64.6572 16.3639 64.3433 16.3658 64.0324 16.3879ZM9.19118 0.454566C10.249 0.471848 11.4119 0.748963 12.4843 1.3787C14.0109 2.27512 14.0911 4.00912 12.6281 5.00466C12.1658 5.31927 11.6544 5.56204 11.1638 5.83489C10.3618 6.28092 10.2007 6.79632 10.6481 7.59932C10.8419 7.94692 11.056 8.29264 11.3143 8.59322C12.5349 10.0138 12.2532 11.8789 11.2914 13.2382C10.1875 14.7983 8.60524 15.6254 6.81291 16.1034C5.63569 16.4174 4.43756 16.6012 3.2257 16.3046C2.0859 16.0256 1.28139 15.3064 0.771925 14.2715C0.347105 13.4087 0.629619 12.5383 1.54037 11.9517C2.22048 11.5137 2.95623 11.1628 3.6521 10.7477C4.06747 10.4999 4.48209 10.236 4.84618 9.92046C5.39419 9.44563 5.41721 8.82977 4.97702 8.2514C4.68243 7.86422 4.37758 7.48333 4.10631 7.08011C3.17742 5.69993 3.2374 4.13043 4.25394 2.79846C5.38384 1.31796 7.1506 0.448005 9.19118 0.454566ZM34.2409 0.537783C35.9909 0.557726 37.1067 1.78855 36.8503 3.45559C36.6425 4.80773 36.3449 6.14772 36.0461 7.48389C35.6789 9.12581 35.3215 10.773 34.8629 12.3904C34.4044 14.0075 33.4383 15.2711 31.8434 15.9412C30.6998 16.4218 29.6227 15.7945 29.499 14.5559C29.4316 13.8809 29.4296 13.1753 29.549 12.5106C29.844 10.8684 30.2213 9.2409 30.5744 7.60932C30.9169 6.02671 31.2372 4.43787 31.6381 2.8698C31.7729 2.34241 32.066 1.82724 32.3919 1.38375C32.8463 0.765263 33.525 0.508317 34.2409 0.537783Z" fill="#1B1D27"/>
</svg>
