<?xml version="1.0" encoding="UTF-8"?>
<svg id="Layer_1" xmlns="http://www.w3.org/2000/svg" xmlns:xlink="http://www.w3.org/1999/xlink" version="1.1" viewBox="0 0 35.4 34.8">
  <!-- Generator: Adobe Illustrator 29.3.1, SVG Export Plug-In . SVG Version: 2.1.0 Build 151)  -->
  <defs>
    <style>
      .st0 {
        fill: #fff;
      }

      .st1 {
        fill: none;
        stroke: url(#linear-gradient);
        stroke-width: .5px;
      }

      .st2 {
        fill: #ef4434;
      }

      .st3 {
        fill: #fdada5;
      }
    </style>
    <linearGradient id="linear-gradient" x1="17.8" y1="43.4" x2="17.8" y2="8.4" gradientTransform="translate(0 43.3) scale(1 -1)" gradientUnits="userSpaceOnUse">
      <stop offset="0" stop-color="#fdada5"/>
      <stop offset=".1" stop-color="#f77769"/>
      <stop offset="1" stop-color="#cc2819"/>
    </linearGradient>
  </defs>
  <g>
    <rect class="st2" x=".3" y="-.1" width="35" height="35" rx="6" ry="6"/>
    <rect class="st1" x=".5" y=".1" width="34.5" height="34.5" rx="5.8" ry="5.8"/>
  </g>
  <g>
    <path class="st0" d="M11,8.9c0,3,1.9,4.8,5.7,5.7l4,.9c3.6.8,5.8,2.8,5.8,6.1,0,1.4-.4,2.8-1.3,3.9,0-3.3-1.7-5-5.9-6.1l-3.9-.9c-3.2-.7-5.6-2.4-5.6-5.9,0-1.4.4-2.7,1.3-3.8Z"/>
    <path class="st3" d="M22.7,20.9c1.7,1.1,2.5,2.6,2.5,4.7-1.4,1.8-3.9,2.8-6.8,2.8-4.9,0-8.4-2.4-9.1-6.5h4.7c.6,1.9,2.2,2.8,4.4,2.8s4.4-1.4,4.4-3.8"/>
    <path class="st3" d="M13.5,13.4c-.8-.5-1.4-1.1-1.9-1.9-.4-.8-.6-1.7-.6-2.6,1.4-1.8,3.7-2.8,6.6-2.8,5,0,7.9,2.6,8.6,6.3h-4.5c-.5-1.4-1.8-2.6-4-2.6s-4.1,1.4-4.2,3.6"/>
  </g>
</svg>